<svg xmlns="http://www.w3.org/2000/svg" enable-background="new 0 0 24 24" viewBox="0 0 24 24"><path fill="#8CC03E" d="M1.5,6.566v10.864c0,0.404,0.215,0.78,0.564,0.981l9.372,5.436c0.349,0.203,0.78,0.203,1.13,0l9.368-5.433c0.35-0.205,0.564-0.578,0.566-0.982V6.566c0-0.404-0.216-0.78-0.567-0.983l-9.366-5.431c-0.349-0.203-0.782-0.203-1.13,0l-0.002,0.001L2.063,5.584C1.713,5.786,1.499,6.161,1.5,6.566L1.5,6.566z"/><path fill="#7AA736" d="M12,0c-0.195,0-0.389,0.051-0.563,0.152l-0.002,0.001L2.063,5.584C1.713,5.786,1.499,6.161,1.5,6.566v10.864c0,0.404,0.215,0.78,0.564,0.981l9.372,5.436C11.611,23.949,11.805,24,12,24V0L12,0z"/></svg>